<?xml version="1.0" encoding="utf-8"?>
<!-- Generator: Adobe Illustrator 23.0.0, SVG Export Plug-In . SVG Version: 6.00 Build 0)  -->
<svg version="1.0" id="Layer_1" xmlns="http://www.w3.org/2000/svg"
    xmlns:xlink="http://www.w3.org/1999/xlink" x="0px" y="0px"
    viewBox="0 0 22 18" enable-background="new 0 0 22 18" xml:space="preserve">
<g id="Black__x26__White_4_">
	<g id="Pyramid_6_">
		<polygon id="Side_6_" points="6.1,17 6.7,15.7 5.3,17 		"/>
		<polygon id="Face_6_" fill="#FFC000" points="6.1,17 6.7,15.7 8.1,17 		"/>
		<polygon id="Shadow_6_" opacity="0.1" fill="#FFFFFF" points="6.7,15.7 8.1,17 8.5,17 		"/>
	</g>
	<path id="whiti" opacity="0.1" fill="#FFFFFF" d="M19,10.6h-1.2V9.5h3.5v1.1h-1.2V17H19V10.6 M13.7,9.5h3.5v1.1h-2.3v2h1.9v1h-1.9
		v2.3h2.3V17h-3.5V9.5 M11.8,9.5h1.1V17h-1.1l-1.4-4.2V17H9.3V9.5h1.1l1.4,4.4V9.5z M18.2,8c-0.3-0.3-0.4-0.8-0.4-1.4V6.2h1.1v0.5
		c0,0.5,0.2,0.7,0.6,0.7c0.2,0,0.4-0.1,0.5-0.2s0.2-0.3,0.2-0.6c0-0.3-0.1-0.6-0.2-0.8c-0.1-0.2-0.4-0.5-0.8-0.8
		c-0.5-0.4-0.8-0.8-1-1.1s-0.3-0.7-0.3-1.1c0-0.6,0.1-1,0.4-1.3C18.6,1.2,19,1,19.6,1c0.6,0,1,0.2,1.3,0.5c0.2,0.3,0.4,0.7,0.4,1.3
		v0.3h-1.1V2.8c0-0.2,0-0.4-0.1-0.5C19.9,2.1,19.8,2,19.6,2C19.2,2,19,2.2,19,2.7c0,0.3,0.1,0.5,0.2,0.7s0.4,0.5,0.8,0.8
		c0.5,0.4,0.8,0.8,1,1.1c0.2,0.5,0.3,0.9,0.3,1.3c0,0.6-0.2,1.1-0.5,1.4s-0.7,0.5-1.3,0.5C19,8.5,18.5,8.3,18.2,8z M17.2,8.1
		c0-0.1,0-0.3,0-0.5V6.2c0-0.4-0.1-0.8-0.2-1.1c-0.1-0.3-0.3-0.4-0.6-0.5l0,0c0.5-0.2,0.8-0.7,0.8-1.5V2.7c0-0.6-0.1-1-0.4-1.3
		C16.5,1.1,16,1,15.4,1h-1.7v7.5h1.2V5.3h0.4c0.3,0,0.5,0.1,0.6,0.2c0.1,0.1,0.2,0.4,0.2,0.7v1.4c0,0.3,0,0.5,0,0.6
		c0,0.1,0,0.2,0.1,0.3h1.1C17.3,8.3,17.2,8.2,17.2,8.1z M16,3.4c0,0.3-0.1,0.5-0.2,0.6c-0.1,0.1-0.3,0.2-0.5,0.2h-0.4V2.1h0.5
		c0.2,0,0.4,0.1,0.5,0.2C16,2.4,16,2.6,16,2.9C16,2.9,16,3.4,16,3.4z M12.4,1.5C12.2,1.2,11.7,1,11.1,1H9.3v7.5h1.8
		c0.6,0,1-0.2,1.3-0.5s0.4-0.8,0.4-1.4V2.8C12.9,2.2,12.7,1.8,12.4,1.5z M11.7,6.7c0,0.3-0.1,0.4-0.2,0.6c-0.1,0.1-0.3,0.2-0.4,0.2
		h-0.6V2.1h0.6c0.2,0,0.3,0.1,0.4,0.2c0.1,0.1,0.2,0.3,0.2,0.6V6.7z M5.6,1h1.2v6.4h2v1.1H5.6V1 M4.1,4.5L4.1,4.5
		C4.3,4.4,4.5,4.2,4.6,4c0.2-0.3,0.2-0.6,0.2-1V2.7c0-0.6-0.1-1-0.4-1.3S3.7,1,3.1,1H1.3v7.5h1.9c0.6,0,1-0.2,1.3-0.5
		C4.8,7.7,5,7.3,5,6.7V6.1C4.9,5.2,4.7,4.7,4.1,4.5z M2.5,2.1h0.6c0.2,0,0.4,0.1,0.5,0.2c0.1,0.1,0.1,0.3,0.1,0.6v0.4
		c0,0.3-0.1,0.5-0.2,0.6S3.2,4,2.9,4H2.5V2.1z M3.8,6.7c0,0.3-0.1,0.5-0.2,0.6c-0.1,0-0.2,0.1-0.4,0.1H2.5V5.1H3
		c0.3,0,0.5,0.1,0.6,0.2C3.7,5.4,3.8,5.7,3.8,6V6.7z"/>
	<path id="blacki" d="M18.4,10.6h-1.2V9.5h3.5v1.1h-1.2V17h-1.1V10.6 M13.1,9.5h3.5v1.1h-2.3v2h1.9v1h-1.9v2.3h2.3V17h-3.5V9.5
		 M11.2,9.5h1.1V17h-1.1l-1.4-4.2V17H8.7V9.5h1.1l1.4,4.4V9.5z M17.6,8c-0.3-0.3-0.4-0.8-0.4-1.4V6.2h1.1v0.5c0,0.5,0.2,0.7,0.6,0.7
		c0.2,0,0.4-0.1,0.5-0.2s0.2-0.3,0.2-0.6c0-0.3-0.1-0.6-0.2-0.8C19.3,5.6,19,5.3,18.6,5c-0.5-0.4-0.8-0.8-1-1.1s-0.3-0.7-0.3-1.1
		c0-0.6,0.1-1,0.4-1.3C18,1.2,18.4,1,19,1c0.6,0,1,0.2,1.3,0.5c0.2,0.3,0.4,0.7,0.4,1.3v0.3h-1.1V2.8c0-0.2,0-0.4-0.1-0.5
		C19.3,2.1,19.2,2,19,2c-0.4,0-0.6,0.2-0.6,0.7c0,0.3,0.1,0.5,0.2,0.7s0.4,0.5,0.8,0.8c0.5,0.4,0.8,0.8,1,1.1
		c0.2,0.5,0.3,0.9,0.3,1.3c0,0.6-0.2,1.1-0.5,1.4s-0.7,0.5-1.3,0.5C18.4,8.5,17.9,8.3,17.6,8z M16.6,8.1c0-0.1,0-0.3,0-0.5V6.2
		c0-0.4-0.1-0.8-0.2-1.1c-0.1-0.3-0.3-0.4-0.6-0.5l0,0c0.5-0.2,0.8-0.7,0.8-1.5V2.7c0-0.6-0.1-1-0.4-1.3C15.9,1.1,15.4,1,14.8,1
		h-1.7v7.5h1.2V5.3h0.4c0.3,0,0.5,0.1,0.6,0.2s0.2,0.4,0.2,0.7v1.4c0,0.3,0,0.5,0,0.6c0,0.1,0,0.2,0.1,0.3h1.1
		C16.7,8.3,16.6,8.2,16.6,8.1z M15.4,3.4c0,0.3-0.1,0.5-0.2,0.6c-0.1,0.1-0.3,0.2-0.5,0.2h-0.4V2.1h0.5c0.2,0,0.4,0.1,0.5,0.2
		c0.1,0.1,0.1,0.3,0.1,0.6C15.4,2.9,15.4,3.4,15.4,3.4z M11.8,1.5C11.6,1.2,11.1,1,10.5,1H8.7v7.5h1.8c0.6,0,1-0.2,1.3-0.5
		s0.4-0.8,0.4-1.4V2.8C12.3,2.2,12.1,1.8,11.8,1.5z M11.1,6.7c0,0.3-0.1,0.4-0.2,0.6c-0.1,0.1-0.3,0.2-0.4,0.2H9.9V2.1h0.6
		c0.2,0,0.3,0.1,0.4,0.2c0.1,0.1,0.2,0.3,0.2,0.6V6.7z M5,1h1.2v6.4h2v1.1H5V1 M3.5,4.5L3.5,4.5C3.7,4.4,3.9,4.2,4,4
		c0.2-0.3,0.2-0.6,0.2-1V2.7c0-0.6-0.1-1-0.4-1.3S3.1,1,2.5,1H0.7v7.5h1.9c0.6,0,1-0.2,1.3-0.5s0.5-0.7,0.5-1.3V6.1
		C4.3,5.2,4.1,4.7,3.5,4.5z M1.9,2.1h0.6c0.2,0,0.4,0.1,0.5,0.2c0.1,0.1,0.1,0.3,0.1,0.6v0.4c0,0.3-0.1,0.5-0.2,0.6S2.6,4,2.3,4H1.9
		V2.1z M3.2,6.7C3.2,7,3.1,7.2,3,7.3c-0.1,0-0.2,0.1-0.4,0.1H1.9V5.1h0.5c0.3,0,0.5,0.1,0.6,0.2C3.1,5.4,3.2,5.7,3.2,6V6.7z"/>
	<path id="yellowi" fill="#FFC000" d="M18.7,10.6h-1.2V9.5H21v1.1h-1.2V17h-1.1V10.6 M13.4,9.5h3.5v1.1h-2.3v2h1.9v1h-1.9v2.3h2.3
		V17h-3.5V9.5 M11.5,9.5h1.1V17h-1.1l-1.4-4.2V17H9V9.5h1.1l1.4,4.4V9.5z M17.9,8c-0.3-0.3-0.4-0.8-0.4-1.4V6.2h1.1v0.5
		c0,0.5,0.2,0.7,0.6,0.7c0.2,0,0.4-0.1,0.5-0.2s0.2-0.3,0.2-0.6c0-0.3-0.1-0.6-0.2-0.8c-0.1-0.2-0.4-0.5-0.8-0.8
		c-0.5-0.4-0.8-0.8-1-1.1s-0.3-0.7-0.3-1.1c0-0.6,0.1-1,0.4-1.3C18.3,1.2,18.7,1,19.3,1c0.6,0,1,0.2,1.3,0.5C20.8,1.8,21,2.2,21,2.8
		v0.3h-1.1V2.8c0-0.2,0-0.4-0.1-0.5C19.6,2.1,19.5,2,19.3,2c-0.4,0-0.6,0.2-0.6,0.7c0,0.3,0.1,0.5,0.2,0.7s0.4,0.5,0.8,0.8
		c0.5,0.4,0.8,0.8,1,1.1C20.9,5.8,21,6.2,21,6.6c0,0.6-0.2,1.1-0.5,1.4s-0.7,0.5-1.3,0.5C18.7,8.5,18.2,8.3,17.9,8z M16.9,8.1
		c0-0.1,0-0.3,0-0.5V6.2c0-0.4-0.1-0.8-0.2-1.1c-0.1-0.3-0.3-0.4-0.6-0.5l0,0c0.5-0.2,0.8-0.7,0.8-1.5V2.7c0-0.6-0.1-1-0.4-1.3
		C16.2,1.1,15.7,1,15.1,1h-1.7v7.5h1.2V5.3H15c0.3,0,0.5,0.1,0.6,0.2s0.2,0.4,0.2,0.7v1.4c0,0.3,0,0.5,0,0.6c0,0.1,0,0.2,0.1,0.3H17
		C17,8.3,16.9,8.2,16.9,8.1z M15.7,3.4c0,0.3-0.1,0.5-0.2,0.6c-0.1,0.1-0.3,0.2-0.5,0.2h-0.4V2.1h0.5c0.2,0,0.4,0.1,0.5,0.2
		c0.1,0.1,0.1,0.3,0.1,0.6C15.7,2.9,15.7,3.4,15.7,3.4z M12.1,1.5C11.9,1.2,11.4,1,10.8,1H9v7.5h1.8c0.6,0,1-0.2,1.3-0.5
		s0.4-0.8,0.4-1.4V2.8C12.6,2.2,12.4,1.8,12.1,1.5z M11.4,6.7c0,0.3-0.1,0.4-0.2,0.6c-0.1,0.1-0.3,0.2-0.4,0.2h-0.6V2.1h0.6
		c0.2,0,0.3,0.1,0.4,0.2c0.1,0.1,0.2,0.3,0.2,0.6V6.7z M5.3,1h1.2v6.4h2v1.1H5.3V1 M3.8,4.5L3.8,4.5C4,4.4,4.2,4.2,4.3,4
		c0.2-0.3,0.2-0.6,0.2-1V2.7c0-0.6-0.1-1-0.4-1.3S3.4,1,2.8,1H1v7.5h1.9c0.6,0,1-0.2,1.3-0.5c0.3-0.3,0.5-0.7,0.5-1.3V6.1
		C4.6,5.2,4.4,4.7,3.8,4.5z M2.2,2.1h0.6c0.2,0,0.4,0.1,0.5,0.2c0.1,0.1,0.1,0.3,0.1,0.6v0.4c0,0.3-0.1,0.5-0.2,0.6S2.9,4,2.6,4H2.2
		V2.1z M3.5,6.7c0,0.3-0.1,0.5-0.2,0.6c-0.1,0-0.2,0.1-0.4,0.1H2.2V5.1h0.5c0.3,0,0.5,0.1,0.6,0.2C3.4,5.4,3.5,5.7,3.5,6V6.7z"/>
</g>
</svg>